<svg id="visual" viewBox="0 0 2000 1000" width="2000" height="1000" xmlns="http://www.w3.org/2000/svg" xmlns:xlink="http://www.w3.org/1999/xlink" version="1.1"><path d="M0 793L47.7 798.7C95.3 804.3 190.7 815.7 285.8 802C381 788.3 476 749.7 571.2 746.3C666.3 743 761.7 775 857 791C952.3 807 1047.7 807 1143 802.8C1238.3 798.7 1333.7 790.3 1428.8 783.7C1524 777 1619 772 1714.2 764.7C1809.3 757.3 1904.7 747.7 1952.3 742.8L2000 738L2000 1001L1952.3 1001C1904.7 1001 1809.3 1001 1714.2 1001C1619 1001 1524 1001 1428.8 1001C1333.7 1001 1238.3 1001 1143 1001C1047.7 1001 952.3 1001 857 1001C761.7 1001 666.3 1001 571.2 1001C476 1001 381 1001 285.8 1001C190.7 1001 95.3 1001 47.7 1001L0 1001Z" fill="#e5c4c4" stroke-linecap="round" stroke-linejoin="miter"></path></svg>